<svg width="48" height="48" viewBox="0 0 48 48" fill="none" xmlns="http://www.w3.org/2000/svg">
<path d="M47.9966 23.4999C47.7781 18.7224 40.7238 14.8866 32.0542 14.8866L31.2339 14.8974C26.486 15.0308 22.2868 16.317 19.5249 18.2597C19.4091 16.748 19.0477 15.0907 18.4223 13.3983L18.2222 12.8778C16.0871 7.54592 12.0618 3.92973 9.0659 4.73233C6.0702 5.53529 5.20259 10.4627 7.03758 15.8749L7.22313 16.3993C8.31498 19.3542 9.99271 21.8288 11.7876 23.3896C8.42205 24.4464 4.87796 27.4726 2.49071 31.7226C-1.15215 38.2084 -0.745586 45.1193 3.35985 47.3173L3.55711 47.4188C7.84696 49.4984 14.3251 45.8425 18.0259 39.2538C19.8544 35.9981 20.6613 32.6352 20.4936 29.8153C23.2234 31.408 27.0113 32.4389 31.2339 32.5575L32.0542 32.5692C40.8615 32.5692 48.0014 28.6104 48.0014 23.7274L47.9966 23.4999ZM16.9106 30.0517C17.0537 32.1567 16.4537 34.918 14.8764 37.7265C13.2989 40.5351 11.2038 42.5727 9.26317 43.6679C7.27493 44.7898 5.95238 44.6974 5.27098 44.3671C4.5897 44.0365 3.75263 43.0818 3.60594 40.9257C3.46285 38.8205 4.06272 36.0585 5.64012 33.2499C7.21763 30.4414 9.31283 28.4046 11.2534 27.3095C13.2413 26.1877 14.5631 26.2801 15.2446 26.6103C15.926 26.9406 16.7639 27.895 16.9106 30.0517ZM15.5249 14.1757C16.4257 16.6136 16.6388 18.829 16.3931 20.3856C16.2706 21.1608 16.0518 21.6685 15.8511 21.9589C15.6638 22.2297 15.5396 22.2528 15.5395 22.2528C15.5323 22.2551 15.4118 22.2897 15.0864 22.163C14.7267 22.0228 14.2065 21.7138 13.5854 21.1386C12.3371 19.9822 11.0215 18.0611 10.1206 15.623C9.21993 13.1851 9.00663 10.9696 9.25243 9.41299C9.37482 8.63835 9.59377 8.13105 9.79442 7.84073C9.9771 7.57652 10.0999 7.54807 10.1059 7.54678C10.1121 7.54477 10.2316 7.5086 10.5581 7.63565C10.9178 7.77577 11.4396 8.08448 12.061 8.66006C13.3093 9.8164 14.624 11.7377 15.5249 14.1757ZM44.0014 23.7274C44.0014 24.0525 43.7156 25.1925 41.3911 26.4814C39.2037 27.6941 35.9102 28.5692 32.0542 28.5692C28.1985 28.5692 24.9056 27.694 22.7182 26.4814C20.3938 25.1925 20.1079 24.0525 20.1079 23.7274C20.1084 23.4013 20.3955 22.2623 22.7182 20.9745C24.9056 19.7619 28.1985 18.8867 32.0542 18.8866C35.9101 18.8866 39.2037 19.7618 41.3911 20.9745C43.7138 22.2623 44.001 23.4013 44.0014 23.7274Z" fill="url(#paint0_linear_369_203)"/>
<circle cx="4.33581" cy="4.33581" r="4.33581" transform="matrix(5.56363e-08 -1 -1 -1.19249e-08 35.4468 47.7814)" fill="#7DCB68"/>
<circle cx="6" cy="6" r="6" transform="matrix(0 -1 -1 -1.19249e-08 33.0014 12.0006)" fill="#4398C1"/>
<circle cx="3.25186" cy="3.25186" r="3.25186" transform="matrix(5.56363e-08 -1 -1 -1.19249e-08 6.7202 23.4884)" fill="#694E9F"/>
<defs>
<linearGradient id="paint0_linear_369_203" x1="24.0008" y1="48.0019" x2="24.0008" y2="4.62139" gradientUnits="userSpaceOnUse">
<stop stop-color="#7DCB68"/>
<stop offset="0.326923" stop-color="#41BFB4"/>
<stop offset="0.663462" stop-color="#448AC6"/>
<stop offset="1" stop-color="#694E9F"/>
</linearGradient>
</defs>
</svg>
