<svg width="48" height="48" viewBox="0 0 48 48" fill="none" xmlns="http://www.w3.org/2000/svg">
<path d="M6 14C6 10.6863 8.68629 8 12 8H20L24 14H32L36 8H36C39.3137 8 42 10.6863 42 14V34C42 37.3137 39.3137 40 36 40H12C8.68629 40 6 37.3137 6 34V14Z" fill="url(#worktracker_gradient)"/>
<rect x="11" y="18" width="26" height="16" rx="3" fill="white" fill-opacity="0.14"/>
<line x1="19.5" y1="18" x2="19.5" y2="34" stroke="white" stroke-opacity="0.22" stroke-width="1"/>
<line x1="28.5" y1="18" x2="28.5" y2="34" stroke="white" stroke-opacity="0.22" stroke-width="1"/>
<rect x="12.5" y="20" width="5.5" height="4.5" rx="1.5" fill="white" fill-opacity="0.92"/>
<rect x="12.5" y="26.5" width="5.5" height="4" rx="1.5" fill="white" fill-opacity="0.5"/>
<rect x="21" y="21.5" width="6" height="6.5" rx="1.5" fill="white" fill-opacity="0.78"/>
<rect x="30" y="20" width="5.5" height="7.5" rx="1.5" fill="white" fill-opacity="0.92"/>
<path d="M31.2 24.2L32.6 25.6L34.8 22.8" stroke="#0D9488" stroke-width="1.6" stroke-linecap="round" stroke-linejoin="round"/>
<circle cx="38" cy="38" r="8" fill="url(#worktracker_accent)"/>
<path d="M34.8 38.3L36.8 40.2L41.2 35.8" stroke="white" stroke-width="2" stroke-linecap="round" stroke-linejoin="round"/>
<defs>
<linearGradient id="worktracker_gradient" x1="24" y1="8" x2="24" y2="40" gradientUnits="userSpaceOnUse">
<stop stop-color="#6366F1"/>
<stop offset="1" stop-color="#14B8A6"/>
</linearGradient>
<linearGradient id="worktracker_accent" x1="38" y1="30" x2="38" y2="46" gradientUnits="userSpaceOnUse">
<stop stop-color="#2DD4BF"/>
<stop offset="1" stop-color="#0F766E"/>
</linearGradient>
</defs>
</svg>
